<svg xmlns="http://www.w3.org/2000/svg" viewBox="0 0 64 64" fill="none">
  <defs>
    <linearGradient id="cloud" x1="0%" y1="0%" x2="0%" y2="100%">
      <stop offset="0%" style="stop-color:#94a3b8"/>
      <stop offset="100%" style="stop-color:#64748b"/>
    </linearGradient>
    <linearGradient id="drop" x1="0%" y1="0%" x2="0%" y2="100%">
      <stop offset="0%" style="stop-color:#38bdf8"/>
      <stop offset="100%" style="stop-color:#0ea5e9"/>
    </linearGradient>
  </defs>
  <!-- Nuvem -->
  <ellipse cx="32" cy="36" rx="20" ry="12" fill="url(#cloud)"/>
  <ellipse cx="24" cy="32" rx="14" ry="10" fill="url(#cloud)"/>
  <ellipse cx="42" cy="32" rx="14" ry="10" fill="url(#cloud)"/>
  <!-- Gotas -->
  <path d="M26 44 Q26 50 32 50 Q38 50 38 44 Q38 40 32 38 Q26 40 26 44Z" fill="url(#drop)"/>
  <path d="M36 48 Q36 54 42 54 Q48 54 48 48 Q48 44 42 42 Q36 44 36 48Z" fill="url(#drop)" opacity="0.9"/>
  <path d="M16 46 Q16 51 20 51 Q24 51 24 46 Q24 43 20 42 Q16 43 16 46Z" fill="url(#drop)" opacity="0.85"/>
</svg>
